<svg xmlns="http://www.w3.org/2000/svg" xmlns:xlink="http://www.w3.org/1999/xlink" viewBox="0 0 48 48"><path d="M 18.571 7.598 C 20.567 6.446 21.564 5.87 22.628 5.656 C 23.492 5.481 24.383 5.481 25.247 5.656 C 26.311 5.87 27.308 6.446 29.304 7.598 L 35.405 11.12 C 37.4 12.273 38.398 12.849 39.115 13.662 C 39.698 14.324 40.144 15.095 40.425 15.931 C 40.771 16.959 40.771 18.111 40.771 20.415 L 40.771 27.46 C 40.771 29.764 40.771 30.916 40.425 31.944 C 40.144 32.78 39.698 33.551 39.115 34.212 C 38.398 35.026 37.4 35.602 35.405 36.755 L 29.304 40.277 C 27.308 41.429 26.311 42.005 25.247 42.219 C 24.383 42.394 23.492 42.394 22.628 42.219 C 21.564 42.005 20.567 41.429 18.571 40.277 L 12.47 36.755 C 10.475 35.602 9.477 35.026 8.76 34.212 C 8.177 33.551 7.731 32.78 7.45 31.944 C 7.104 30.916 7.104 29.764 7.104 27.46 L 7.104 20.415 C 7.104 18.111 7.104 16.959 7.45 15.931 C 7.731 15.095 8.177 14.324 8.76 13.662 C 9.477 12.849 10.475 12.273 12.47 11.12 Z" fill="rgb(255,255,255)"></path><path d="M 34.195 24.459 L 34.195 21.771 L 27.336 25.731 L 27.336 28.419 Z" fill="rgb(18,18,18)"></path><path d="M 34.195 28.781 L 34.195 23.079 L 31.805 24.459 L 31.805 30.161 Z" fill="rgb(18,18,18)"></path><path d="M 13.625 28.688 L 13.625 17.563 L 23.909 23.5 L 23.909 34.625 Z" fill="rgb(18,18,18)"></path><path d="M 34.194 17.563 L 23.91 11.625 L 13.626 17.563 L 23.91 23.5 Z" fill="rgb(18,18,18)"></path><path d="M 30.275 17.563 L 23.91 13.889 L 17.546 17.563 L 23.91 21.238 Z" fill="rgb(255,255,255)"></path><path d="M 28.109 18.924 L 23.91 16.5 L 19.711 18.924 L 23.91 21.349 Z" fill="rgb(18,18,18)"></path></svg>