<?xml version="1.0" encoding="utf-8"?>
<svg width="50px" height="50px" viewBox="0 0 50 50" xmlns="http://www.w3.org/2000/svg">
  <!-- Background rectangle with white fill and sleek border radius -->
  <rect x="0" y="0" width="50" height="50" rx="12" ry="12" fill="white" />

  <!-- Centering the provided icon with appropriate scale -->
  <g transform="translate(5, 5) scale(0.04)"> <!-- Adjusted for centering and scaling -->
    <path d="M737.6 934.4c-342.4 0-624.8-258.4-656.8-600.8v-0.8c-0.8-5.6-1.6-12.8-2.4-19.2 0-4.8-0.8-10.4-0.8-14.4 0.8-70.4 36-135.2 95.2-175.2 30.4-20.8 66.4-32.8 103.2-34.4h12.8c63.2 0 123.2 28 163.2 76.8 44 52.8 58.4 123.2 40.8 192-17.6 68-69.6 121.6-138.4 144l-22.4 7.2 14.4 18.4c63.2 80 140 143.2 228.8 188.8l18.4 9.6 4.8-20c16-72 80.8-125.6 158.4-129.6h8c94.4 0 173.6 72 181.6 164.8 2.4 25.6-1.6 51.2-9.6 76-22.4 62.4-77.6 107.2-144 116.8-4 .8-.8 .8 -13 .8c13-.5 -28 -1 -41 -1zM1176 .5c30 .5 -30 .5 -30 .5s30 .5 -30 .5S1176 .5zM1176 .5s30 .5 -30 .5s30 .5 -30 .5zM1176 .5s30 .5 -30 .5s30 .5 -30 .5zM1176 .5s30 .5 -30 .5s30 .5 -30 .5z" fill="black" />
    <path d="M...Z" fill="black"/>
    <!-- Add more paths as needed -->
    
    </g>
</svg>