<?xml version="1.0" encoding="utf-8"?>
<svg width="50px" height="50px" viewBox="0 0 50 50" xmlns="http://www.w3.org/2000/svg">
  <!-- Background rectangle with white fill and no border -->
  <rect x="0" y="0" width="50" height="50" rx="12" ry="12" fill="white"/>

  <!-- Centering the flag icon -->
  <g transform="translate(7, 7)">
    <path d="M6,34a1,1,0,0,1-1-1V3A1,1,0,0,1,7,3V33A1,1,0,0,1,6,34Z" fill="black" stroke="black" stroke-width="2"/>
    <path d="M30.55,3.82a1,1,0,0,0-1,0,14.9,14.9,0,0,1-6.13,1.16,13.11,13.11,0,0,1-5.18-1.49,12.78,12.78,0,0,0-5-1.45A10.86,10.86,0,0,0,9,2.85V5.08A8.8,8.8,0,0,1,13.25,4a11.22,11.22,0,0,1,4.2,1.28,a14.84 14.84 0 0 0 6 1.66A18.75 18.75 0 0 0 29 6.12V18.95a16.16 16.16 0 0 1-5.58 .93,a13.11 13.11 0 0 1-5.18-1.49,a12.78 12.78 0 0 0-5-1.45A10.86 10.86 0 0 0 9 17.79V20a8.8 8.8 0 0 1 4.25-1.08,a11.22 a11.22 a=4 .28,a14 .84 a14 .84 a=6 a=6 a=6 a=6 a=6 a=6 a=6 a=6 a=6 a=6 a=6 a=6 a=6 a=6 a=6 a=6 a=6 a=6 a=6 a=6 a=6 z" fill="black" stroke="black" stroke-width="2"/>
    <!-- Adjusted stroke width for better visibility -->
  </g>
</svg>