<svg
  width="25"
  height="24"
  viewBox="0 0 25 24"
  fill="none"
  xmlns="http://www.w3.org/2000/svg"
>
  <path
    d="M20.5 7L4.5 7C3.9 7 3.5 6.6 3.5 6C3.5 5.4 3.9 5 4.5 5L20.5 5C21.1 5 21.5 5.4 21.5 6C21.5 6.6 21.1 7 20.5 7Z"
    fill="#ffffff"
  />
  <path
    d="M14.5 13L4.5 13C3.9 13 3.5 12.6 3.5 12C3.5 11.4 3.9 11 4.5 11L14.5 11C15.1 11 15.5 11.4 15.5 12C15.5 12.6 15.1 13 14.5 13Z"
    fill="#ffffff"
  />
  <path
    d="M18.5 19H4.5C3.9 19 3.5 18.6 3.5 18C3.5 17.4 3.9 17 4.5 17L18.5 17C19.1 17 19.5 17.4 19.5 18C19.5 18.6 19.1 19 18.5 19Z"
    fill="#ffffff"
  />
</svg>